<svg width="16" height="16" viewBox="0 0 16 16" fill="none" xmlns="http://www.w3.org/2000/svg">
<path fill-rule="evenodd" clip-rule="evenodd" d="M16 8.00001C16 8.26523 15.8947 8.51958 15.7071 8.70712C15.5196 8.89466 15.2653 9.00001 15.0001 9.00001H3.41541L7.70893 13.292C7.80189 13.385 7.87564 13.4954 7.92595 13.6168C7.97626 13.7383 8.00216 13.8685 8.00216 14C8.00216 14.1315 7.97626 14.2617 7.92595 14.3832C7.87564 14.5047 7.80189 14.615 7.70893 14.708C7.61596 14.801 7.5056 14.8747 7.38413 14.9251C7.26266 14.9754 7.13248 15.0013 7.00101 15.0013C6.86953 15.0013 6.73935 14.9754 6.61788 14.9251C6.49642 14.8747 6.38605 14.801 6.29308 14.708L0.293755 8.70801C0.200639 8.61512 0.126761 8.50477 0.0763536 8.38328C0.0259463 8.26179 0 8.13155 0 8.00001C0 7.86848 0.0259463 7.73823 0.0763536 7.61674C0.126761 7.49525 0.200639 7.3849 0.293755 7.29201L6.29308 1.29201C6.48084 1.10424 6.73548 0.998749 7.00101 0.998749C7.26653 0.998749 7.52117 1.10424 7.70893 1.29201C7.89668 1.47979 8.00216 1.73446 8.00216 2.00001C8.00216 2.26556 7.89668 2.52024 7.70893 2.70801L3.41541 7.00001H15.0001C15.2653 7.00001 15.5196 7.10537 15.7071 7.29291C15.8947 7.48044 16 7.7348 16 8.00001Z" fill="#0B0B0B"/>
</svg>
