<svg width="15" height="15" viewBox="0 0 15 15" fill="none" xmlns="http://www.w3.org/2000/svg">
<path d="M10.0378 13.4662C10.2136 13.2904 10.3123 13.052 10.3123 12.8034C10.3123 12.5548 10.2136 12.3164 10.0378 12.1406L5.39719 7.49999L10.0378 2.85936C10.2086 2.68255 10.3031 2.44573 10.3009 2.19992C10.2988 1.95411 10.2002 1.71898 10.0264 1.54515C9.85257 1.37133 9.61744 1.27274 9.37163 1.2706C9.12582 1.26847 8.889 1.36296 8.71219 1.53374L3.40875 6.83717C3.233 7.01298 3.13426 7.25139 3.13426 7.49999C3.13426 7.74858 3.233 7.98699 3.40875 8.1628L8.71219 13.4662C8.888 13.642 9.12641 13.7407 9.375 13.7407C9.62359 13.7407 9.86201 13.642 10.0378 13.4662Z" fill="black"/>
</svg>
