<svg width="24" height="24" viewBox="0 0 24 24" fill="none" xmlns="http://www.w3.org/2000/svg">
<path d="M15.9111 9.21563L10.5929 5.31563C10.4927 5.24309 10.3766 5.20169 10.2569 5.19582C10.1371 5.18995 10.0181 5.21982 9.91247 5.28228C9.80686 5.34473 9.71858 5.43744 9.65696 5.55059C9.59535 5.66374 9.56271 5.79311 9.56249 5.92501V13.725C9.56262 13.858 9.5957 13.9883 9.65817 14.1022C9.72064 14.216 9.81014 14.3089 9.91703 14.3709C10.022 14.4333 10.1405 14.4628 10.2596 14.4563C10.3787 14.4499 10.494 14.4077 10.5929 14.3344L15.9111 10.4344C16.0025 10.3677 16.0775 10.2771 16.1294 10.1708C16.1812 10.0645 16.2084 9.94568 16.2084 9.82501C16.2084 9.70434 16.1812 9.58554 16.1294 9.47921C16.0775 9.37289 16.0025 9.28233 15.9111 9.21563ZM10.892 12.36V7.29001L14.3489 9.82501L10.892 12.36ZM20.8636 0.318756H3.13635C2.49079 0.321962 1.87249 0.605479 1.416 1.10762C0.95951 1.60976 0.701767 2.28988 0.698853 3.00001V16.65C0.701767 17.3601 0.95951 18.0403 1.416 18.5424C1.87249 19.0445 2.49079 19.328 3.13635 19.3313H20.8636C21.5092 19.328 22.1275 19.0445 22.584 18.5424C23.0405 18.0403 23.2982 17.3601 23.3011 16.65V3.00001C23.2982 2.28988 23.0405 1.60976 22.584 1.10762C22.1275 0.605479 21.5092 0.321962 20.8636 0.318756ZM21.9716 16.65C21.9716 16.9732 21.8548 17.2832 21.6471 17.5118C21.4393 17.7404 21.1575 17.8688 20.8636 17.8688H3.13635C2.8425 17.8688 2.56069 17.7404 2.35291 17.5118C2.14513 17.2832 2.0284 16.9732 2.0284 16.65V3.00001C2.0284 2.67677 2.14513 2.36678 2.35291 2.13822C2.56069 1.90966 2.8425 1.78126 3.13635 1.78126H20.8636C21.1575 1.78126 21.4393 1.90966 21.6471 2.13822C21.8548 2.36678 21.9716 2.67677 21.9716 3.00001V16.65ZM16.2102 22.5C16.2102 22.6939 16.1402 22.8799 16.0155 23.0171C15.8908 23.1542 15.7218 23.2313 15.5454 23.2313H8.45453C8.27823 23.2313 8.10914 23.1542 7.98447 23.0171C7.8598 22.8799 7.78976 22.6939 7.78976 22.5C7.78976 22.3061 7.8598 22.1201 7.98447 21.9829C8.10914 21.8458 8.27823 21.7688 8.45453 21.7688H15.5454C15.7218 21.7688 15.8908 21.8458 16.0155 21.9829C16.1402 22.1201 16.2102 22.3061 16.2102 22.5Z" fill="#0B0B0B"/>
</svg>
