<svg width="22" height="22" viewBox="0 0 22 22" fill="none" xmlns="http://www.w3.org/2000/svg">
<g clip-path="url(#clip0_68_233)">
<path d="M18.5626 1.37513C18.0156 1.37513 17.491 1.59243 17.1042 1.97922C16.7174 2.36601 16.5001 2.89062 16.5001 3.43763C16.5001 3.98464 16.7174 4.50924 17.1042 4.89603C17.491 5.28283 18.0156 5.50013 18.5626 5.50013C19.1096 5.50013 19.6342 5.28283 20.021 4.89603C20.4078 4.50924 20.6251 3.98464 20.6251 3.43763C20.6251 2.89062 20.4078 2.36601 20.021 1.97922C19.6342 1.59243 19.1096 1.37513 18.5626 1.37513ZM15.1251 3.43763C15.125 2.6311 15.4085 1.85021 15.926 1.23159C16.4435 0.612973 17.162 0.196014 17.9559 0.0536651C18.7498 -0.0886836 19.5684 0.0526425 20.2686 0.452917C20.9688 0.853192 21.5059 1.48693 21.7861 2.24324C22.0662 2.99956 22.0715 3.8303 21.801 4.59011C21.5305 5.34993 21.0014 5.99044 20.3064 6.39957C19.6113 6.80871 18.7945 6.96042 17.9989 6.82817C17.2033 6.69592 16.4795 6.28812 15.9542 5.67613L6.71697 9.96613C6.92932 10.6391 6.92932 11.3611 6.71697 12.0341L15.9542 16.3241C16.5095 15.6783 17.2848 15.2617 18.1297 15.1549C18.9747 15.0481 19.8292 15.2588 20.5277 15.7462C21.2262 16.2336 21.7189 16.9629 21.9103 17.7928C22.1017 18.6227 21.9781 19.4941 21.5637 20.2382C21.1492 20.9822 20.4732 21.5459 19.6668 21.8199C18.8604 22.094 17.981 22.059 17.199 21.7216C16.4169 21.3842 15.788 20.7685 15.4341 19.9938C15.0801 19.2192 15.0264 18.3407 15.2832 17.5286L6.04597 13.2386C5.58869 13.7715 4.97917 14.1516 4.29941 14.3277C3.61965 14.5039 2.90225 14.4676 2.24373 14.2238C1.58521 13.98 1.01714 13.5403 0.615963 12.964C0.214781 12.3877 -0.000274658 11.7023 -0.000274658 11.0001C-0.000274658 10.2979 0.214781 9.61256 0.615963 9.03623C1.01714 8.45991 1.58521 8.02027 2.24373 7.77647C2.90225 7.53266 3.61965 7.49638 4.29941 7.67251C4.97917 7.84863 5.58869 8.22872 6.04597 8.76163L15.2832 4.47163C15.1781 4.13704 15.1247 3.78834 15.1251 3.43763ZM3.43759 8.93763C2.89058 8.93763 2.36598 9.15493 1.97918 9.54172C1.59239 9.92851 1.37509 10.4531 1.37509 11.0001C1.37509 11.5471 1.59239 12.0717 1.97918 12.4585C2.36598 12.8453 2.89058 13.0626 3.43759 13.0626C3.9846 13.0626 4.5092 12.8453 4.896 12.4585C5.28279 12.0717 5.50009 11.5471 5.50009 11.0001C5.50009 10.4531 5.28279 9.92851 4.896 9.54172C4.5092 9.15493 3.9846 8.93763 3.43759 8.93763ZM18.5626 16.5001C18.0156 16.5001 17.491 16.7174 17.1042 17.1042C16.7174 17.491 16.5001 18.0156 16.5001 18.5626C16.5001 19.1096 16.7174 19.6342 17.1042 20.021C17.491 20.4078 18.0156 20.6251 18.5626 20.6251C19.1096 20.6251 19.6342 20.4078 20.021 20.021C20.4078 19.6342 20.6251 19.1096 20.6251 18.5626C20.6251 18.0156 20.4078 17.491 20.021 17.1042C19.6342 16.7174 19.1096 16.5001 18.5626 16.5001Z" fill="#0B0B0B"/>
</g>
<defs>
<clipPath id="clip0_68_233">
<rect width="22" height="22" fill="white"/>
</clipPath>
</defs>
</svg>
